<?xml version="1.0" encoding="iso-8859-1"?>
<!-- Generator: Adobe Illustrator 19.0.0, SVG Export Plug-In . SVG Version: 6.00 Build 0)  -->
<svg version="1.1" id="Capa_1" xmlns="http://www.w3.org/2000/svg" xmlns:xlink="http://www.w3.org/1999/xlink" x="0px" y="0px"
	 viewBox="0 0 512.001 512.001" style="enable-background:new 0 0 512.001 512.001;" xml:space="preserve">
<path style="fill:#414356;" d="M419.593,492.071c0,6.863-5.561,12.426-12.422,12.426H104.831c-6.859,0-12.422-5.562-12.422-12.426
	V19.929c0-6.861,5.563-12.426,12.422-12.426H407.17c6.861,0,12.422,5.564,12.422,12.426V492.071z"/>
<path style="fill:#2D313F;" d="M112.677,492.071V19.929c0-6.861,5.563-12.426,12.422-12.426h-20.268
	c-6.859,0-12.422,5.564-12.422,12.426v472.143c0,6.863,5.563,12.426,12.422,12.426h20.268
	C118.239,504.497,112.677,498.935,112.677,492.071z"/>
<path style="fill:#E04E4B;" d="M161.984,341.771v10.418h-10.418c-7.505,0-13.587,6.086-13.587,13.589
	c-0.004,7.506,6.082,13.591,13.587,13.589l10.418,0.002v10.416c0,7.505,6.086,13.588,13.591,13.588s13.589-6.083,13.589-13.588
	v-10.416l10.418-0.002c7.503,0.002,13.589-6.083,13.589-13.589c0-7.503-6.086-13.589-13.589-13.589h-10.418v-10.418
	c0-7.505-6.086-13.588-13.589-13.588C168.07,328.184,161.984,334.267,161.984,341.771z"/>
<path style="fill:#C44137;" d="M175.322,389.785c0-5.695,0.802-10.417-5.993-10.417l-4.425-0.001
	c-7.505,0.002-13.591-6.083-13.587-13.589c-0.004-7.506,6.082-13.591,13.587-13.589c5.065-0.001,4.186-0.001,5.23-0.001
	c10.748-0.592-0.891-14.907,12.109-22.248c-9.029-5.101-20.259,1.437-20.259,11.831c0,1.31,0,9.135,0,10.418h-10.418
	c-7.505,0-13.587,6.086-13.587,13.589c0,7.503,6.082,13.589,13.587,13.589h10.418c0,1.315,0,9.151,0,10.418
	c0,7.505,6.086,13.588,13.591,13.588c2.425,0,4.697-0.643,6.668-1.757C178.017,399.23,175.322,394.755,175.322,389.785z"/>
<g>
	<path style="fill:#F0C419;" d="M317.187,393.963c0,11.301-9.159,20.462-20.46,20.462c-11.299,0-20.458-9.161-20.458-20.462
		c0-11.298,9.159-20.456,20.458-20.456C308.028,373.507,317.187,382.665,317.187,393.963z"/>
	<path style="fill:#F0C419;" d="M374.026,337.593c0,11.302-9.161,20.461-20.46,20.461c-11.301,0-20.458-9.159-20.458-20.461
		c0-11.297,9.157-20.459,20.458-20.459C364.864,317.134,374.026,326.296,374.026,337.593z"/>
</g>
<g>
	<path style="fill:#F7AC16;" d="M306.958,376.266c-13.607-7.883-30.689,1.96-30.689,17.697c0,11.301,9.159,20.462,20.458,20.462
		c3.731,0,7.219-1.015,10.231-2.76C293.322,403.766,293.34,384.153,306.958,376.266z"/>
	<path style="fill:#F7AC16;" d="M353.567,337.593c0-7.567,4.119-14.16,10.229-17.699c-3.012-1.745-6.498-2.76-10.23-2.76
		c-11.301,0-20.458,9.162-20.458,20.459c0,11.302,9.157,20.461,20.458,20.461c3.73,0,7.218-1.015,10.23-2.759
		C357.687,351.756,353.567,345.163,353.567,337.593z"/>
</g>
<path style="fill:#49B5CE;" d="M386.982,259.108c0,6.859-5.567,12.424-12.428,12.424H137.448c-6.861,0-12.424-5.565-12.424-12.424
	V52.025c0-6.86,5.563-12.425,12.424-12.425h237.105c6.861,0,12.428,5.565,12.428,12.425L386.982,259.108L386.982,259.108z"/>
<path style="fill:#34A4B7;" d="M145.031,259.108V52.025c0-6.86,5.563-12.425,12.424-12.425h-20.007
	c-6.861,0-12.424,5.565-12.424,12.425v207.083c0,6.859,5.563,12.424,12.424,12.424h20.007
	C150.593,271.532,145.031,265.968,145.031,259.108z"/>
<path style="fill:#2571A0;" d="M125.024,233.187v26.922c0,6.859,5.563,12.424,12.424,12.424h237.105
	c6.861,0,12.428-5.565,12.428-12.424v-26.922L125.024,233.187L125.024,233.187z"/>
<path style="fill:#1A6287;" d="M137.448,271.532h20.007c-6.861,0-12.424-5.565-12.424-12.424v-25.921h-20.007v25.921
	C125.024,265.968,130.586,271.532,137.448,271.532z"/>
<path style="fill:#F0C419;" d="M241.518,179.352c0-7.625-6.184-13.806-13.806-13.806h-44.475c-7.622,0-13.804,6.181-13.804,13.806
	c0,8.893,6.684,14.381,13.804,14.381h44.475C234.87,193.733,241.518,188.209,241.518,179.352z"/>
<path style="fill:#3BBC56;" d="M342.571,179.925v-0.573c0-7.625-6.186-13.806-13.808-13.806h-44.472
	c-7.16,0-13.806,5.522-13.806,14.379c0,7.625,6.182,13.808,13.806,13.808h44.473C336.386,193.733,342.571,187.55,342.571,179.925z"
	/>
<path style="fill:#F7AC16;" d="M205.476,179.352c0-7.625,6.182-13.806,13.804-13.806h-36.042c-7.158,0-13.804,5.522-13.804,14.379
	c0,7.625,6.182,13.808,13.804,13.808h36.042C212.122,193.733,205.476,188.209,205.476,179.352z"/>
<path style="fill:#31A845;" d="M306.527,179.925v-0.573c0-7.625,6.182-13.806,13.806-13.806h-36.042
	c-7.16,0-13.806,5.522-13.806,14.379c0,7.625,6.182,13.808,13.806,13.808h36.042C312.71,193.733,306.527,187.55,306.527,179.925z"/>
<path style="fill:#6D6E72;" d="M312.002,469.612H200c-6.861,0-12.424,5.561-12.424,12.424v22.461h136.854v-22.461
	C324.429,475.174,318.866,469.612,312.002,469.612z"/>
<path style="fill:#585A60;" d="M220.267,469.612H200c-6.861,0-12.424,5.561-12.424,12.424v22.461h20.267v-22.461
	C207.842,475.174,213.404,469.612,220.267,469.612z"/>
<path d="M419.593,448.732c4.144,0,7.503-3.358,7.503-7.503v-421.3C427.095,8.94,418.157,0,407.17,0H104.831
	C93.845,0,84.906,8.94,84.906,19.929v472.143c0,10.989,8.939,19.929,19.925,19.929c6.093,0,293.863,0,302.339,0
	c10.986,0,19.925-8.94,19.925-19.929v-25.826c0-4.144-3.358-7.503-7.503-7.503s-7.503,3.358-7.503,7.503v25.825
	c0,2.715-2.207,4.924-4.92,4.924h-75.24v-14.958c0-10.988-8.94-19.927-19.929-19.927H200c-10.988,0-19.927,8.939-19.927,19.927
	v14.958h-75.242c-2.713,0-4.92-2.209-4.92-4.924V19.929c0-2.715,2.207-4.924,4.92-4.924H407.17c2.713,0,4.92,2.209,4.92,4.924v421.3
	C412.09,445.373,415.449,448.732,419.593,448.732z M195.078,482.036c0-2.714,2.208-4.922,4.922-4.922h112.003
	c2.715,0,4.924,2.208,4.924,4.922v14.958H195.078V482.036z"/>
<path d="M175.575,410.875c11.63,0,21.092-9.461,21.092-21.091v-2.914c3.327-0.001,11.015,0.635,17.827-6.177
	c3.984-3.984,6.179-9.281,6.179-14.915c0-11.63-9.461-21.091-21.091-21.091h-2.915v-2.915c0-11.629-9.461-21.091-21.092-21.091
	c-11.631,0-21.093,9.461-21.093,21.091v2.915h-2.915c-18.724,0-28.154,22.766-14.914,36.006c6.645,6.646,14.048,6.176,17.829,6.178
	v2.914C154.481,401.414,163.944,410.875,175.575,410.875z M151.562,371.864c-1.624,0-3.151-0.633-4.301-1.782
	c-3.812-3.812-1.106-10.391,4.305-10.391h10.418c4.144,0,7.503-3.358,7.503-7.503v-10.418c0-3.355,2.731-6.085,6.088-6.085
	c3.355,0,6.086,2.73,6.086,6.085v10.418c0,4.145,3.358,7.503,7.503,7.503h10.418c3.355,0,6.086,2.73,6.086,6.086
	c0,3.359-2.716,6.086-6.087,6.086l-10.418,0.002c-4.143,0.001-7.502,3.359-7.502,7.503v10.416c0,3.355-2.73,6.085-6.086,6.085
	s-6.088-2.73-6.088-6.085v-10.416c0-4.143-3.358-7.502-7.502-7.503C161.983,371.866,151.561,371.864,151.562,371.864z"/>
<path d="M268.766,393.963c0,15.419,12.543,27.965,27.961,27.965c15.418,0,27.963-12.545,27.963-27.965
	c0-15.417-12.544-27.959-27.963-27.959C281.31,366.004,268.766,378.547,268.766,393.963z M309.685,393.963
	c0,7.147-5.813,12.96-12.958,12.96s-12.956-5.814-12.956-12.96c0-7.144,5.812-12.954,12.956-12.954
	C303.873,381.009,309.685,386.821,309.685,393.963z"/>
<path d="M353.565,309.631c-15.417,0-27.961,12.543-27.961,27.962c0,15.419,12.543,27.964,27.961,27.964
	c15.418,0,27.963-12.544,27.963-27.964C381.529,322.175,368.985,309.631,353.565,309.631z M353.565,350.552
	c-7.145,0-12.956-5.814-12.956-12.959c0-7.145,5.812-12.957,12.956-12.957c7.146,0,12.958,5.813,12.958,12.957
	C366.524,344.738,360.711,350.552,353.565,350.552z"/>
<path d="M394.485,259.108v-26.922V52.025c0-10.988-8.941-19.928-19.931-19.928H137.447c-10.988,0-19.927,8.94-19.927,19.928v180.161
	v26.922c0,10.987,8.938,19.927,19.927,19.927h237.106c0.687,0,1.365-0.035,2.035-0.103
	C386.627,277.91,394.485,269.409,394.485,259.108z M374.554,264.03H137.447c-2.714,0-4.922-2.208-4.922-4.922v-19.419h34.321
	c4.144,0,7.503-3.358,7.503-7.503c0-4.144-3.358-7.503-7.503-7.503h-34.321V52.025c0-2.715,2.208-4.923,4.922-4.923h237.106
	c2.716,0,4.926,2.208,4.926,4.923v172.658H193.356c-4.144,0-7.503,3.358-7.503,7.503c0,4.144,3.358,7.503,7.503,7.503h186.123
	v19.419C379.479,261.822,377.27,264.03,374.554,264.03z"/>
<path d="M169.434,93.351h173.138c4.144,0,7.503-3.358,7.503-7.503s-3.358-7.503-7.503-7.503H169.434
	c-4.144,0-7.503,3.358-7.503,7.503S165.289,93.351,169.434,93.351z"/>
<path d="M169.434,117.51h173.138c4.144,0,7.503-3.358,7.503-7.503c0-4.144-3.358-7.503-7.503-7.503H169.434
	c-4.144,0-7.503,3.358-7.503,7.503C161.931,114.152,165.289,117.51,169.434,117.51z"/>
<path d="M169.434,141.67h91.001c4.144,0,7.503-3.358,7.503-7.503c0-4.144-3.358-7.503-7.503-7.503h-91.001
	c-4.144,0-7.503,3.358-7.503,7.503C161.931,138.312,165.289,141.67,169.434,141.67z"/>
<path d="M249.021,179.925v-0.573c0-11.749-9.559-21.309-21.309-21.309h-44.475c-11.748,0-21.307,9.559-21.307,21.309v0.573
	c0,11.75,9.558,21.311,21.307,21.311h44.475C239.462,201.236,249.021,191.675,249.021,179.925z M176.936,179.352
	c0-3.476,2.826-6.303,6.301-6.303h44.475c3.476,0,6.303,2.827,6.303,6.303v0.573c0,3.477-2.827,6.305-6.303,6.305h-44.475
	C180.061,186.23,176.936,183.894,176.936,179.352z"/>
<path d="M328.763,158.043h-44.473c-11.749,0-21.309,9.559-21.309,21.309v0.573c0,11.75,9.559,21.311,21.309,21.311h44.473
	c11.75,0,21.311-9.56,21.311-21.311v-0.573C350.074,167.603,340.515,158.043,328.763,158.043z M335.069,179.925
	c0,3.477-2.828,6.305-6.305,6.305h-44.473c-3.476,0-6.303-2.828-6.303-6.305v-0.573c0-3.476,2.827-6.303,6.303-6.303h44.473
	c3.477,0,6.305,2.827,6.305,6.303V179.925z"/>
<g>
</g>
<g>
</g>
<g>
</g>
<g>
</g>
<g>
</g>
<g>
</g>
<g>
</g>
<g>
</g>
<g>
</g>
<g>
</g>
<g>
</g>
<g>
</g>
<g>
</g>
<g>
</g>
<g>
</g>
</svg>
